<svg width="63" height="61" viewBox="0 0 63 61" fill="none" xmlns="http://www.w3.org/2000/svg">
<path d="M50.5483 7.77596C46.1176 2.98913 39.831 0 32.8584 0C21.403 0 11.8009 8.06751 9.23725 18.9233L12.5122 18.0002C12.6555 17.96 12.8038 18.0316 12.8635 18.1702C12.9233 18.3087 12.8742 18.4689 12.7476 18.5483C10.1389 20.192 7.47195 22.154 5.2242 24.1C-3.08692 31.4448 -1.68258 38.9051 10.8841 33.8241C18.9421 30.7443 15.9967 27.9962 14.9528 26.7852C14.8688 26.6879 14.8313 26.573 14.8409 26.4437C14.8506 26.3144 14.9047 26.2068 15.0019 26.1233C15.7243 25.5037 17.516 26.1367 18.5072 26.3855C19.9627 26.7512 21.4161 27.1546 22.862 27.5625C22.9987 27.6012 23.1323 27.5775 23.2482 27.494L31.1878 21.7723C31.3042 21.6883 31.3705 21.5683 31.3796 21.4236C31.3893 21.2788 31.3386 21.1506 31.2343 21.0522C30.0705 19.954 26.7647 17.1013 26.1683 16.5847C25.8721 16.3282 24.8647 15.4731 23.7965 14.547C22.7157 13.6105 21.5726 12.6014 21.041 12.0688C20.9402 11.9679 20.8942 11.8396 20.9063 11.6964C20.919 11.5532 20.9868 11.4352 21.1033 11.3539C22.5866 10.3195 25.857 12.1569 27.0618 12.7369C27.3215 12.8621 27.5817 12.9888 27.8415 13.1165C28.8575 13.6167 29.8761 14.1369 30.8977 14.6639C31.0394 14.737 31.1954 14.7329 31.3331 14.652L32.0778 14.2147C32.4382 14.003 32.9029 14.1297 33.111 14.4965C33.2497 14.7412 33.2406 15.0327 33.112 15.263C33.0482 15.3778 33.0346 15.5004 33.072 15.6271C33.1095 15.7533 33.1875 15.8481 33.3034 15.9079C34.1817 16.3601 35.0616 16.8083 35.9425 17.2435C36.2199 17.3805 36.7272 17.7179 37.0942 17.8148C37.24 17.8534 37.3823 17.822 37.4987 17.7246C39.7702 15.8347 44.2521 13.0094 47.1828 12.5649C48.8114 12.3176 50.4592 12.4876 50.9589 13.4884C50.9665 13.5039 50.9741 13.5173 50.9832 13.5317C51.5851 14.4723 50.9057 16.0093 49.8811 17.3208C48.0373 19.681 43.392 22.2173 40.6476 23.2743C40.5068 23.3284 40.4086 23.4381 40.3686 23.586C40.2679 23.9579 40.3013 24.5734 40.279 24.8866C40.2092 25.8802 40.1504 26.8795 40.0963 27.8798C40.0892 28.0117 40.1307 28.1276 40.2193 28.2239C40.3079 28.3202 40.4193 28.3697 40.5494 28.3707C40.8096 28.3728 41.0622 28.5103 41.2014 28.755C41.4095 29.1217 41.2849 29.5946 40.9245 29.8063L40.1798 30.2436C40.0421 30.3245 39.9606 30.4595 39.952 30.6212C39.874 32.082 39.7895 33.5356 39.6746 34.9645C39.5657 36.3167 39.4948 40.1171 37.8723 40.9062C37.7447 40.968 37.6106 40.9691 37.4825 40.9083C37.3544 40.8475 37.2684 40.7424 37.2329 40.6033C36.8598 39.1415 36.0938 34.6107 35.9531 33.8277C35.8119 33.0437 35.0368 28.7045 34.6839 27.1298C34.652 26.9882 34.568 26.88 34.4404 26.8162C34.3129 26.7523 34.1767 26.7502 34.0476 26.811L25.2064 30.9462C25.0773 31.0065 24.9908 31.1121 24.9548 31.2522C24.5787 32.73 24.1959 34.2125 23.7793 35.6779C23.4943 36.6814 23.3161 38.8999 22.4165 39.2105C22.1836 39.2909 21.9315 39.1369 21.8419 38.9035C19.3152 32.3416 13.6573 39.892 15.6484 42.0977C16.4473 42.9826 17.2563 43.8691 18.0718 44.7571C22.9172 50.0317 27.9943 55.3476 32.505 60.5661C32.5987 60.6743 32.7161 60.7366 32.8579 60.7371C32.9996 60.7376 33.1176 60.6758 33.2118 60.5681C40.1575 52.6093 52.9409 41.2998 56.3175 30.0613C57.2582 26.931 57.5594 22.751 56.6674 19.5821C56.356 18.4767 50.3782 21.7465 50.6865 21.0326C51.049 20.193 62.6102 15.1764 62.3936 9.65402C62.2756 6.6515 57.7988 5.28185 50.5483 7.77596Z" fill="#FF715B"/>
</svg>
