<svg width="111" height="100" viewBox="0 0 111 100" fill="none" xmlns="http://www.w3.org/2000/svg">
<path d="M17.2666 11.1112C15.9582 11.1112 14.7034 11.5795 13.7783 12.413C12.8531 13.2465 12.3333 14.3769 12.3333 15.5557V33.3334H37V11.1112H17.2666ZM30.8333 27.7779H18.5V16.6668H30.8333V27.7779Z" fill="#4D5778"/>
<path d="M12.3333 84.4445C12.3333 85.6232 12.8531 86.7537 13.7783 87.5872C14.7034 88.4207 15.9582 88.8889 17.2666 88.8889H37V66.6667H12.3333V84.4445ZM18.5 72.2223H30.8333V83.3334H18.5V72.2223Z" fill="#4D5778"/>
<path d="M74 88.8889H93.7333C95.0417 88.8889 96.2965 88.4207 97.2217 87.5872C98.1469 86.7537 98.6666 85.6232 98.6666 84.4445V66.6667H74V88.8889ZM80.1667 72.2223H92.5V83.3334H80.1667V72.2223Z" fill="#4D5778"/>
<path d="M93.7333 11.1112H74V33.3334H98.6666V15.5557C98.6666 14.3769 98.1469 13.2465 97.2217 12.413C96.2965 11.5795 95.0417 11.1112 93.7333 11.1112ZM92.5 27.7779H80.1667V16.6668H92.5V27.7779Z" fill="#4D5778"/>
<path d="M61.6667 27.7777V22.2222H49.3334V33.3333H55.5V27.7777H61.6667Z" fill="#4D5778"/>
<path d="M37 33.3334H43.1667V38.8889H37V33.3334Z" fill="#4D5778"/>
<path d="M43.1666 38.8888H55.5V44.4444H43.1666V38.8888Z" fill="#4D5778"/>
<path d="M61.6666 16.6668V22.2223H67.8333V11.1112H43.1666V22.2223H49.3333V16.6668H61.6666Z" fill="#4D5778"/>
<path d="M12.3333 38.8888H18.5V49.9999H12.3333V38.8888Z" fill="#4D5778"/>
<path d="M37 44.4443V49.9999H30.8333V38.8888H24.6666V49.9999H18.5V55.5555H12.3333V61.111H24.6666V55.5555H30.8333V61.111H37V55.5555H43.1666V44.4443H37Z" fill="#4D5778"/>
<path d="M61.6667 44.4445H67.8333V50.0001H74V44.4445H80.1666V38.8889H67.8333V27.7778H61.6667V33.3334H55.5V38.8889H61.6667V44.4445Z" fill="#4D5778"/>
<path d="M55.5 83.3334H43.1666V88.889H67.8333V83.3334H61.6666V77.7778H55.5V83.3334Z" fill="#4D5778"/>
<path d="M67.8334 55.5556V50H61.6667V44.4445H55.5V50H49.3334V55.5556H55.5V61.1111H61.6667V55.5556H67.8334Z" fill="#4D5778"/>
<path d="M92.5 55.5555H98.6667V61.1111H92.5V55.5555Z" fill="#4D5778"/>
<path d="M67.8334 55.5555H86.3334V61.1111H67.8334V55.5555Z" fill="#4D5778"/>
<path d="M92.5 38.8888H86.3333V44.4444H80.1666V49.9999H86.3333V55.5555H92.5V49.9999H98.6666V44.4444H92.5V38.8888Z" fill="#4D5778"/>
<path d="M61.6667 61.1112H67.8333V77.7779H61.6667V61.1112Z" fill="#4D5778"/>
<path d="M43.1666 77.7778H49.3333V72.2222H55.5V66.6666H49.3333V55.5555H43.1666V77.7778Z" fill="#4D5778"/>
</svg>
