<svg width="55" height="50" viewBox="0 0 55 50" fill="none" xmlns="http://www.w3.org/2000/svg">
<path d="M3.14285 0C2.30932 0 1.50992 0.30102 0.920521 0.836838C0.331121 1.37266 0 2.09938 0 2.85714V14.2857H15.7143V0H3.14285ZM11.7857 10.7143H3.92857V3.57143H11.7857V10.7143Z" fill="white"/>
<path d="M0 47.1429C0 47.9007 0.331121 48.6274 0.920521 49.1632C1.50992 49.699 2.30932 50 3.14285 50H15.7143V35.7144H0V47.1429ZM3.92857 39.2858H11.7857V46.4286H3.92857V39.2858Z" fill="white"/>
<path d="M39.2858 50H51.8572C52.6907 50 53.4901 49.699 54.0795 49.1632C54.6689 48.6274 55 47.9007 55 47.1429V35.7144H39.2858V50ZM43.2143 39.2858H51.0714V46.4286H43.2143V39.2858Z" fill="white"/>
<path d="M51.8572 0H39.2858V14.2857H55V2.85714C55 2.09938 54.6689 1.37266 54.0795 0.836838C53.4901 0.30102 52.6907 0 51.8572 0ZM51.0714 10.7143H43.2143V3.57143H51.0714V10.7143Z" fill="white"/>
<path d="M31.4286 10.7142V7.14282H23.5715V14.2857H27.5V10.7142H31.4286Z" fill="white"/>
<path d="M15.7143 14.2856H19.6429V17.8571H15.7143V14.2856Z" fill="white"/>
<path d="M19.6426 17.8572H27.4998V21.4286H19.6426V17.8572Z" fill="white"/>
<path d="M31.4283 3.57143V7.14286H35.3569V0H19.6426V7.14286H23.5712V3.57143H31.4283Z" fill="white"/>
<path d="M0 17.8572H3.92856V25H0V17.8572Z" fill="white"/>
<path d="M15.7143 21.4286V25H11.7857V17.8572H7.85713V25H3.92857V28.5715H0V32.1429H7.85713V28.5715H11.7857V32.1429H15.7143V28.5715H19.6428V21.4286H15.7143Z" fill="white"/>
<path d="M31.4284 21.4286H35.3569V25.0001H39.2855V21.4286H43.2141V17.8572H35.3569V10.7144H31.4284V14.2858H27.4998V17.8572H31.4284V21.4286Z" fill="white"/>
<path d="M27.4998 46.4286H19.6426V50H35.3569V46.4286H31.4283V42.8572H27.4998V46.4286Z" fill="white"/>
<path d="M35.3572 28.5713V24.9999H31.4286V21.4285H27.5V24.9999H23.5715V28.5713H27.5V32.1428H31.4286V28.5713H35.3572Z" fill="white"/>
<path d="M51.0712 28.5713H54.9998V32.1427H51.0712V28.5713Z" fill="white"/>
<path d="M35.3569 28.5713H47.1426V32.1427H35.3569V28.5713Z" fill="white"/>
<path d="M51.0712 17.8572H47.1427V21.4286H43.2141V25H47.1427V28.5715H51.0712V25H54.9998V21.4286H51.0712V17.8572Z" fill="white"/>
<path d="M31.4286 32.1428H35.3571V42.8571H31.4286V32.1428Z" fill="white"/>
<path d="M19.6426 42.857H23.5712V39.2856H27.4998V35.7141H23.5712V28.5713H19.6426V42.857Z" fill="white"/>
</svg>
